<svg xmlns="http://www.w3.org/2000/svg" viewBox="0 0 24 24" width="64" height="64" fill="none">
  <!-- Background gradient -->
  <defs>
    <linearGradient id="med-grad" x1="0%" y1="0%" x2="100%" y2="100%">
      <stop offset="0%" stop-color="#2563eb" />
      <stop offset="100%" stop-color="#4f46e5" />
    </linearGradient>
  </defs>
  <!-- Rounded base -->
  <rect width="24" height="24" rx="7" fill="url(#med-grad)"/>
  <!-- Medical cross with rounded ends -->
  <path d="M12 7c-0.55 0-1 0.45-1 1v3H8c-0.55 0-1 0.45-1 1s0.45 1 1 1h3v3c0 0.55 0.45 1 1 1s1-0.45 1-1v-3h3c0.55 0 1-0.45 1-1s-0.45-1-1-1h-3V8c0-0.55-0.45-1-1-1z" fill="white" />
</svg>